<svg xmlns="http://www.w3.org/2000/svg" xmlns:xlink="http://www.w3.org/1999/xlink" width="1344" zoomAndPan="magnify" viewBox="0 0 1008 1295.99994" height="1728" preserveAspectRatio="xMidYMid meet" version="1.0"><defs><g/><clipPath id="192d6472f1"><path d="M 180 373.371094 L 847 373.371094 L 847 455.613281 L 180 455.613281 Z M 180 373.371094 " clip-rule="nonzero"/></clipPath><clipPath id="74a790c04d"><path d="M 173 510.367188 L 847 510.367188 L 847 593.464844 L 173 593.464844 Z M 173 510.367188 " clip-rule="nonzero"/></clipPath><clipPath id="2a96f2d803"><path d="M 173 648 L 840 648 L 840 730.242188 L 173 730.242188 Z M 173 648 " clip-rule="nonzero"/></clipPath></defs><rect x="-100.8" width="1209.6" fill="#ffffff" y="-129.599994" height="1555.199927" fill-opacity="1"/><rect x="-100.8" width="1209.6" fill="#050a30" y="-129.599994" height="1555.199927" fill-opacity="1"/><g fill="#f1ad8e" fill-opacity="1"><g transform="translate(215.281997, 837.748394)"><g><path d="M 25.703125 0.984375 C 21.160156 0.984375 16.765625 0.367188 12.515625 -0.859375 C 8.273438 -2.085938 4.867188 -3.691406 2.296875 -5.671875 L 6.8125 -15.6875 C 9.28125 -13.875 12.210938 -12.421875 15.609375 -11.328125 C 19.003906 -10.234375 22.394531 -9.6875 25.78125 -9.6875 C 29.5625 -9.6875 32.351562 -10.25 34.15625 -11.375 C 35.96875 -12.5 36.875 -13.988281 36.875 -15.84375 C 36.875 -17.21875 36.335938 -18.351562 35.265625 -19.25 C 34.203125 -20.15625 32.832031 -20.878906 31.15625 -21.421875 C 29.488281 -21.972656 27.234375 -22.578125 24.390625 -23.234375 C 20.015625 -24.273438 16.425781 -25.316406 13.625 -26.359375 C 10.832031 -27.398438 8.4375 -29.070312 6.4375 -31.375 C 4.445312 -33.675781 3.453125 -36.738281 3.453125 -40.5625 C 3.453125 -43.90625 4.351562 -46.929688 6.15625 -49.640625 C 7.96875 -52.347656 10.691406 -54.492188 14.328125 -56.078125 C 17.972656 -57.671875 22.421875 -58.46875 27.671875 -58.46875 C 31.335938 -58.46875 34.921875 -58.03125 38.421875 -57.15625 C 41.929688 -56.28125 45 -55.019531 47.625 -53.375 L 43.53125 -43.28125 C 38.21875 -46.289062 32.90625 -47.796875 27.59375 -47.796875 C 23.875 -47.796875 21.125 -47.191406 19.34375 -45.984375 C 17.5625 -44.785156 16.671875 -43.203125 16.671875 -41.234375 C 16.671875 -39.253906 17.695312 -37.785156 19.75 -36.828125 C 21.800781 -35.867188 24.9375 -34.925781 29.15625 -34 C 33.53125 -32.957031 37.113281 -31.914062 39.90625 -30.875 C 42.695312 -29.832031 45.09375 -28.1875 47.09375 -25.9375 C 49.09375 -23.695312 50.09375 -20.660156 50.09375 -16.828125 C 50.09375 -13.546875 49.175781 -10.550781 47.34375 -7.84375 C 45.507812 -5.132812 42.757812 -2.984375 39.09375 -1.390625 C 35.425781 0.191406 30.960938 0.984375 25.703125 0.984375 Z M 25.703125 0.984375 "/></g></g></g><g fill="#f1ad8e" fill-opacity="1"><g transform="translate(290.916353, 837.748394)"><g><path d="M 6.8125 -57.484375 L 20.125 -57.484375 L 20.125 0 L 6.8125 0 Z M 6.8125 -57.484375 "/></g></g></g><g fill="#f1ad8e" fill-opacity="1"><g transform="translate(341.093171, 837.748394)"><g><path d="M 45.65625 -29.640625 L 57.8125 -29.640625 L 57.8125 -6.328125 C 54.695312 -3.972656 51.082031 -2.164062 46.96875 -0.90625 C 42.863281 0.351562 38.734375 0.984375 34.578125 0.984375 C 28.609375 0.984375 23.238281 -0.285156 18.46875 -2.828125 C 13.707031 -5.378906 9.972656 -8.910156 7.265625 -13.421875 C 4.554688 -17.941406 3.203125 -23.050781 3.203125 -28.75 C 3.203125 -34.4375 4.554688 -39.535156 7.265625 -44.046875 C 9.972656 -48.566406 13.734375 -52.097656 18.546875 -54.640625 C 23.367188 -57.191406 28.796875 -58.46875 34.828125 -58.46875 C 39.859375 -58.46875 44.425781 -57.617188 48.53125 -55.921875 C 52.632812 -54.222656 56.085938 -51.757812 58.890625 -48.53125 L 50.34375 -40.65625 C 46.238281 -44.976562 41.285156 -47.140625 35.484375 -47.140625 C 31.804688 -47.140625 28.546875 -46.375 25.703125 -44.84375 C 22.859375 -43.3125 20.640625 -41.144531 19.046875 -38.34375 C 17.460938 -35.550781 16.671875 -32.351562 16.671875 -28.75 C 16.671875 -25.1875 17.460938 -22.007812 19.046875 -19.21875 C 20.640625 -16.425781 22.84375 -14.25 25.65625 -12.6875 C 28.476562 -11.125 31.695312 -10.34375 35.3125 -10.34375 C 39.144531 -10.34375 42.59375 -11.164062 45.65625 -12.8125 Z M 45.65625 -29.640625 "/></g></g></g><g fill="#f1ad8e" fill-opacity="1"><g transform="translate(427.649628, 837.748394)"><g><path d="M 59.546875 -57.484375 L 59.546875 0 L 46.234375 0 L 46.234375 -23.5625 L 20.125 -23.5625 L 20.125 0 L 6.8125 0 L 6.8125 -57.484375 L 20.125 -57.484375 L 20.125 -34.828125 L 46.234375 -34.828125 L 46.234375 -57.484375 Z M 59.546875 -57.484375 "/></g></g></g><g fill="#f1ad8e" fill-opacity="1"><g transform="translate(517.244579, 837.748394)"><g><path d="M 18.71875 -46.640625 L 0.328125 -46.640625 L 0.328125 -57.484375 L 50.421875 -57.484375 L 50.421875 -46.640625 L 32.03125 -46.640625 L 32.03125 0 L 18.71875 0 Z M 18.71875 -46.640625 "/></g></g></g><g fill="#f1ad8e" fill-opacity="1"><g transform="translate(591.236498, 837.748394)"><g><path d="M 25.703125 0.984375 C 21.160156 0.984375 16.765625 0.367188 12.515625 -0.859375 C 8.273438 -2.085938 4.867188 -3.691406 2.296875 -5.671875 L 6.8125 -15.6875 C 9.28125 -13.875 12.210938 -12.421875 15.609375 -11.328125 C 19.003906 -10.234375 22.394531 -9.6875 25.78125 -9.6875 C 29.5625 -9.6875 32.351562 -10.25 34.15625 -11.375 C 35.96875 -12.5 36.875 -13.988281 36.875 -15.84375 C 36.875 -17.21875 36.335938 -18.351562 35.265625 -19.25 C 34.203125 -20.15625 32.832031 -20.878906 31.15625 -21.421875 C 29.488281 -21.972656 27.234375 -22.578125 24.390625 -23.234375 C 20.015625 -24.273438 16.425781 -25.316406 13.625 -26.359375 C 10.832031 -27.398438 8.4375 -29.070312 6.4375 -31.375 C 4.445312 -33.675781 3.453125 -36.738281 3.453125 -40.5625 C 3.453125 -43.90625 4.351562 -46.929688 6.15625 -49.640625 C 7.96875 -52.347656 10.691406 -54.492188 14.328125 -56.078125 C 17.972656 -57.671875 22.421875 -58.46875 27.671875 -58.46875 C 31.335938 -58.46875 34.921875 -58.03125 38.421875 -57.15625 C 41.929688 -56.28125 45 -55.019531 47.625 -53.375 L 43.53125 -43.28125 C 38.21875 -46.289062 32.90625 -47.796875 27.59375 -47.796875 C 23.875 -47.796875 21.125 -47.191406 19.34375 -45.984375 C 17.5625 -44.785156 16.671875 -43.203125 16.671875 -41.234375 C 16.671875 -39.253906 17.695312 -37.785156 19.75 -36.828125 C 21.800781 -35.867188 24.9375 -34.925781 29.15625 -34 C 33.53125 -32.957031 37.113281 -31.914062 39.90625 -30.875 C 42.695312 -29.832031 45.09375 -28.1875 47.09375 -25.9375 C 49.09375 -23.695312 50.09375 -20.660156 50.09375 -16.828125 C 50.09375 -13.546875 49.175781 -10.550781 47.34375 -7.84375 C 45.507812 -5.132812 42.757812 -2.984375 39.09375 -1.390625 C 35.425781 0.191406 30.960938 0.984375 25.703125 0.984375 Z M 25.703125 0.984375 "/></g></g></g><g fill="#f1ad8e" fill-opacity="1"><g transform="translate(666.870859, 837.748394)"><g><path d="M 51.328125 -10.671875 L 51.328125 0 L 6.8125 0 L 6.8125 -57.484375 L 50.265625 -57.484375 L 50.265625 -46.8125 L 20.03125 -46.8125 L 20.03125 -34.328125 L 46.734375 -34.328125 L 46.734375 -23.984375 L 20.03125 -23.984375 L 20.03125 -10.671875 Z M 51.328125 -10.671875 "/></g></g></g><g fill="#f1ad8e" fill-opacity="1"><g transform="translate(745.215223, 837.748394)"><g><path d="M 44.671875 -12.3125 L 17.984375 -12.3125 L 12.890625 0 L -0.734375 0 L 24.890625 -57.484375 L 38.03125 -57.484375 L 63.734375 0 L 49.765625 0 Z M 40.484375 -22.421875 L 31.375 -44.421875 L 22.25 -22.421875 Z M 40.484375 -22.421875 "/></g></g></g><g clip-path="url(#192d6472f1)"><path fill="#ffffff" d="M 839.125 407.335938 C 823.117188 407.335938 815.441406 415.273438 804.902344 426.203125 L 804.640625 426.464844 C 792.019531 439.476562 776.402344 455.613281 746.082031 455.613281 C 715.5 455.613281 699.886719 439.347656 687.261719 426.203125 C 676.722656 415.273438 669.042969 407.335938 653.039062 407.335938 C 637.03125 407.335938 629.355469 415.273438 618.816406 426.203125 L 618.425781 426.59375 C 605.933594 439.476562 590.445312 455.480469 560.386719 455.480469 C 529.804688 455.480469 514.191406 439.214844 501.699219 426.203125 L 501.566406 426.074219 C 491.027344 415.140625 483.347656 407.203125 467.34375 407.203125 C 451.335938 407.203125 443.660156 415.140625 433.117188 426.074219 L 432.730469 426.464844 C 420.234375 439.347656 404.621094 455.480469 374.300781 455.480469 C 343.71875 455.480469 328.105469 439.214844 315.613281 426.203125 L 315.480469 426.074219 C 304.941406 415.140625 297.261719 407.203125 281.257812 407.203125 C 265.25 407.203125 257.574219 415.140625 247.03125 426.074219 L 246.773438 426.332031 C 234.148438 439.347656 218.535156 455.480469 188.214844 455.480469 L 180.40625 455.480469 L 180.40625 421.648438 L 188.214844 421.648438 C 204.21875 421.648438 211.898438 413.710938 222.4375 402.78125 L 222.828125 402.390625 C 235.320312 389.507812 250.9375 373.371094 281.257812 373.371094 C 311.835938 373.371094 327.453125 389.636719 339.945312 402.648438 L 340.074219 402.78125 C 350.617188 413.710938 358.292969 421.648438 374.300781 421.648438 C 390.304688 421.648438 397.984375 413.710938 408.523438 402.78125 L 408.785156 402.519531 C 421.40625 389.507812 437.023438 373.371094 467.34375 373.371094 C 497.921875 373.371094 513.539062 389.636719 526.03125 402.648438 L 526.160156 402.78125 C 536.703125 413.710938 544.378906 421.648438 560.386719 421.648438 C 576.523438 421.648438 584.070312 413.710938 594.480469 402.78125 C 606.972656 389.765625 622.589844 373.5 653.167969 373.5 C 683.75 373.5 699.363281 389.765625 711.859375 402.78125 L 711.988281 402.910156 C 722.527344 413.839844 730.207031 421.777344 746.210938 421.777344 C 762.21875 421.777344 769.894531 413.839844 780.4375 402.910156 L 780.695312 402.648438 C 793.320312 389.636719 808.933594 373.5 839.125 373.5 L 846.933594 373.5 L 846.933594 407.335938 Z M 839.125 407.335938 " fill-opacity="1" fill-rule="nonzero"/></g><g fill="#f1ad8e" fill-opacity="1"><g transform="translate(216.698004, 897.608925)"><g><path d="M 26.875 -5.59375 L 26.875 0 L 3.5625 0 L 3.5625 -30.09375 L 26.3125 -30.09375 L 26.3125 -24.515625 L 10.484375 -24.515625 L 10.484375 -17.96875 L 24.46875 -17.96875 L 24.46875 -12.5625 L 10.484375 -12.5625 L 10.484375 -5.59375 Z M 26.875 -5.59375 "/></g></g></g><g fill="#f1ad8e" fill-opacity="1"><g transform="translate(274.358414, 897.608925)"><g><path d="M 22.53125 0 L 15.265625 -10.453125 L 8.125 0 L 0.125 0 L 11.265625 -15.3125 L 0.6875 -30.09375 L 8.59375 -30.09375 L 15.515625 -20.34375 L 22.3125 -30.09375 L 29.84375 -30.09375 L 19.34375 -15.5625 L 30.578125 0 Z M 22.53125 0 "/></g></g></g><g fill="#f1ad8e" fill-opacity="1"><g transform="translate(333.867663, 897.608925)"><g><path d="M 16.59375 -30.09375 C 19.257812 -30.09375 21.570312 -29.648438 23.53125 -28.765625 C 25.5 -27.878906 27.015625 -26.617188 28.078125 -24.984375 C 29.140625 -23.347656 29.671875 -21.410156 29.671875 -19.171875 C 29.671875 -16.960938 29.140625 -15.035156 28.078125 -13.390625 C 27.015625 -11.742188 25.5 -10.484375 23.53125 -9.609375 C 21.570312 -8.734375 19.257812 -8.296875 16.59375 -8.296875 L 10.53125 -8.296875 L 10.53125 0 L 3.5625 0 L 3.5625 -30.09375 Z M 16.21875 -13.96875 C 18.300781 -13.96875 19.890625 -14.421875 20.984375 -15.328125 C 22.078125 -16.234375 22.625 -17.515625 22.625 -19.171875 C 22.625 -20.867188 22.078125 -22.164062 20.984375 -23.0625 C 19.890625 -23.96875 18.300781 -24.421875 16.21875 -24.421875 L 10.53125 -24.421875 L 10.53125 -13.96875 Z M 16.21875 -13.96875 "/></g></g></g><g fill="#f1ad8e" fill-opacity="1"><g transform="translate(394.150842, 897.608925)"><g><path d="M 26.875 -5.59375 L 26.875 0 L 3.5625 0 L 3.5625 -30.09375 L 26.3125 -30.09375 L 26.3125 -24.515625 L 10.484375 -24.515625 L 10.484375 -17.96875 L 24.46875 -17.96875 L 24.46875 -12.5625 L 10.484375 -12.5625 L 10.484375 -5.59375 Z M 26.875 -5.59375 "/></g></g></g><g fill="#f1ad8e" fill-opacity="1"><g transform="translate(451.811264, 897.608925)"><g><path d="M 3.5625 -30.09375 L 17.25 -30.09375 C 20.507812 -30.09375 23.394531 -29.46875 25.90625 -28.21875 C 28.414062 -26.976562 30.363281 -25.222656 31.75 -22.953125 C 33.144531 -20.691406 33.84375 -18.054688 33.84375 -15.046875 C 33.84375 -12.035156 33.144531 -9.394531 31.75 -7.125 C 30.363281 -4.863281 28.414062 -3.109375 25.90625 -1.859375 C 23.394531 -0.617188 20.507812 0 17.25 0 L 3.5625 0 Z M 16.90625 -5.71875 C 19.90625 -5.71875 22.300781 -6.554688 24.09375 -8.234375 C 25.882812 -9.910156 26.78125 -12.179688 26.78125 -15.046875 C 26.78125 -17.910156 25.882812 -20.179688 24.09375 -21.859375 C 22.300781 -23.535156 19.90625 -24.375 16.90625 -24.375 L 10.53125 -24.375 L 10.53125 -5.71875 Z M 16.90625 -5.71875 "/></g></g></g><g fill="#f1ad8e" fill-opacity="1"><g transform="translate(516.136072, 897.608925)"><g><path d="M 3.5625 -30.09375 L 10.53125 -30.09375 L 10.53125 0 L 3.5625 0 Z M 3.5625 -30.09375 "/></g></g></g><g fill="#f1ad8e" fill-opacity="1"><g transform="translate(559.048803, 897.608925)"><g><path d="M 9.796875 -24.421875 L 0.171875 -24.421875 L 0.171875 -30.09375 L 26.40625 -30.09375 L 26.40625 -24.421875 L 16.765625 -24.421875 L 16.765625 0 L 9.796875 0 Z M 9.796875 -24.421875 "/></g></g></g><g fill="#f1ad8e" fill-opacity="1"><g transform="translate(614.43042, 897.608925)"><g><path d="M 3.5625 -30.09375 L 10.53125 -30.09375 L 10.53125 0 L 3.5625 0 Z M 3.5625 -30.09375 "/></g></g></g><g fill="#f1ad8e" fill-opacity="1"><g transform="translate(657.343152, 897.608925)"><g><path d="M 18.140625 0.515625 C 15.015625 0.515625 12.195312 -0.15625 9.6875 -1.5 C 7.1875 -2.851562 5.222656 -4.710938 3.796875 -7.078125 C 2.378906 -9.441406 1.671875 -12.097656 1.671875 -15.046875 C 1.671875 -18.003906 2.378906 -20.664062 3.796875 -23.03125 C 5.222656 -25.394531 7.1875 -27.25 9.6875 -28.59375 C 12.195312 -29.9375 15.015625 -30.609375 18.140625 -30.609375 C 21.265625 -30.609375 24.070312 -29.9375 26.5625 -28.59375 C 29.0625 -27.25 31.023438 -25.394531 32.453125 -23.03125 C 33.890625 -20.664062 34.609375 -18.003906 34.609375 -15.046875 C 34.609375 -12.097656 33.890625 -9.441406 32.453125 -7.078125 C 31.023438 -4.710938 29.0625 -2.851562 26.5625 -1.5 C 24.070312 -0.15625 21.265625 0.515625 18.140625 0.515625 Z M 18.140625 -5.421875 C 19.921875 -5.421875 21.523438 -5.828125 22.953125 -6.640625 C 24.390625 -7.460938 25.515625 -8.601562 26.328125 -10.0625 C 27.148438 -11.519531 27.5625 -13.179688 27.5625 -15.046875 C 27.5625 -16.910156 27.148438 -18.570312 26.328125 -20.03125 C 25.515625 -21.5 24.390625 -22.640625 22.953125 -23.453125 C 21.523438 -24.273438 19.921875 -24.6875 18.140625 -24.6875 C 16.367188 -24.6875 14.765625 -24.273438 13.328125 -23.453125 C 11.898438 -22.640625 10.773438 -21.5 9.953125 -20.03125 C 9.140625 -18.570312 8.734375 -16.910156 8.734375 -15.046875 C 8.734375 -13.179688 9.140625 -11.519531 9.953125 -10.0625 C 10.773438 -8.601562 11.898438 -7.460938 13.328125 -6.640625 C 14.765625 -5.828125 16.367188 -5.421875 18.140625 -5.421875 Z M 18.140625 -5.421875 "/></g></g></g><g fill="#f1ad8e" fill-opacity="1"><g transform="translate(722.441901, 897.608925)"><g><path d="M 31.171875 -30.09375 L 31.171875 0 L 25.453125 0 L 10.453125 -18.28125 L 10.453125 0 L 3.5625 0 L 3.5625 -30.09375 L 9.328125 -30.09375 L 24.296875 -11.828125 L 24.296875 -30.09375 Z M 31.171875 -30.09375 "/></g></g></g><g fill="#f1ad8e" fill-opacity="1"><g transform="translate(785.992814, 897.608925)"><g><path d="M 13.453125 0.515625 C 11.078125 0.515625 8.773438 0.191406 6.546875 -0.453125 C 4.328125 -1.097656 2.546875 -1.9375 1.203125 -2.96875 L 3.5625 -8.21875 C 4.851562 -7.269531 6.390625 -6.507812 8.171875 -5.9375 C 9.953125 -5.363281 11.726562 -5.078125 13.5 -5.078125 C 15.476562 -5.078125 16.941406 -5.367188 17.890625 -5.953125 C 18.835938 -6.546875 19.3125 -7.328125 19.3125 -8.296875 C 19.3125 -9.015625 19.03125 -9.609375 18.46875 -10.078125 C 17.90625 -10.554688 17.1875 -10.9375 16.3125 -11.21875 C 15.4375 -11.507812 14.253906 -11.828125 12.765625 -12.171875 C 10.472656 -12.710938 8.59375 -13.253906 7.125 -13.796875 C 5.664062 -14.347656 4.414062 -15.222656 3.375 -16.421875 C 2.332031 -17.628906 1.8125 -19.234375 1.8125 -21.234375 C 1.8125 -22.984375 2.28125 -24.566406 3.21875 -25.984375 C 4.164062 -27.410156 5.59375 -28.535156 7.5 -29.359375 C 9.40625 -30.191406 11.734375 -30.609375 14.484375 -30.609375 C 16.410156 -30.609375 18.289062 -30.378906 20.125 -29.921875 C 21.957031 -29.460938 23.5625 -28.804688 24.9375 -27.953125 L 22.796875 -22.65625 C 20.015625 -24.238281 17.234375 -25.03125 14.453125 -25.03125 C 12.503906 -25.03125 11.0625 -24.710938 10.125 -24.078125 C 9.195312 -23.453125 8.734375 -22.625 8.734375 -21.59375 C 8.734375 -20.550781 9.269531 -19.78125 10.34375 -19.28125 C 11.414062 -18.78125 13.054688 -18.285156 15.265625 -17.796875 C 17.554688 -17.253906 19.429688 -16.707031 20.890625 -16.15625 C 22.359375 -15.613281 23.613281 -14.753906 24.65625 -13.578125 C 25.707031 -12.410156 26.234375 -10.820312 26.234375 -8.8125 C 26.234375 -7.09375 25.75 -5.523438 24.78125 -4.109375 C 23.820312 -2.691406 22.382812 -1.566406 20.46875 -0.734375 C 18.550781 0.0976562 16.210938 0.515625 13.453125 0.515625 Z M 13.453125 0.515625 "/></g></g></g><g clip-path="url(#74a790c04d)"><path fill="#ffffff" d="M 838.953125 544.683594 C 822.78125 544.683594 815.023438 552.703125 804.375 563.75 L 804.109375 564.011719 C 791.355469 577.160156 775.578125 593.464844 744.941406 593.464844 C 714.042969 593.464844 698.265625 577.03125 685.511719 563.75 C 674.863281 552.703125 667.105469 544.683594 650.933594 544.683594 C 634.761719 544.683594 627.003906 552.703125 616.351562 563.75 L 615.957031 564.144531 C 603.335938 577.160156 587.6875 593.332031 557.316406 593.332031 C 526.417969 593.332031 510.640625 576.898438 498.015625 563.75 L 497.886719 563.617188 C 487.234375 552.574219 479.476562 544.554688 463.304688 544.554688 C 447.132812 544.554688 439.375 552.574219 428.726562 563.617188 L 428.332031 564.011719 C 415.707031 577.03125 399.929688 593.332031 369.292969 593.332031 C 338.394531 593.332031 322.617188 576.898438 309.996094 563.75 L 309.863281 563.617188 C 299.214844 552.574219 291.457031 544.554688 275.285156 544.554688 C 259.109375 544.554688 251.355469 552.574219 240.703125 563.617188 L 240.441406 563.882812 C 227.6875 577.03125 211.910156 593.332031 181.273438 593.332031 L 173.382812 593.332031 L 173.382812 559.148438 L 181.273438 559.148438 C 197.445312 559.148438 205.203125 551.128906 215.851562 540.082031 L 216.246094 539.6875 C 228.871094 526.671875 244.648438 510.367188 275.285156 510.367188 C 306.183594 510.367188 321.960938 526.800781 334.582031 539.949219 L 334.714844 540.082031 C 345.363281 551.128906 353.121094 559.148438 369.292969 559.148438 C 385.46875 559.148438 393.222656 551.128906 403.875 540.082031 L 404.136719 539.820312 C 416.890625 526.671875 432.667969 510.367188 463.304688 510.367188 C 494.203125 510.367188 509.980469 526.800781 522.605469 539.949219 L 522.734375 540.082031 C 533.386719 551.128906 541.144531 559.148438 557.316406 559.148438 C 573.621094 559.148438 581.246094 551.128906 591.765625 540.082031 C 604.386719 526.933594 620.164062 510.5 651.0625 510.5 C 681.960938 510.5 697.742188 526.933594 710.363281 540.082031 L 710.496094 540.214844 C 721.144531 551.257812 728.902344 559.277344 745.074219 559.277344 C 761.246094 559.277344 769.003906 551.257812 779.65625 540.214844 L 779.917969 539.949219 C 792.671875 526.800781 808.449219 510.5 838.953125 510.5 L 846.84375 510.5 L 846.84375 544.683594 Z M 838.953125 544.683594 " fill-opacity="1" fill-rule="nonzero"/></g><g clip-path="url(#2a96f2d803)"><path fill="#ffffff" d="M 832.007812 681.964844 C 816 681.964844 808.324219 689.902344 797.78125 700.832031 L 797.523438 701.09375 C 784.898438 714.105469 769.285156 730.242188 738.964844 730.242188 C 708.382812 730.242188 692.765625 713.976562 680.144531 700.832031 C 669.605469 689.902344 661.925781 681.964844 645.921875 681.964844 C 629.914062 681.964844 622.238281 689.902344 611.695312 700.832031 L 611.304688 701.222656 C 598.8125 714.105469 583.328125 730.113281 553.269531 730.113281 C 522.6875 730.113281 507.070312 713.847656 494.578125 700.832031 L 494.449219 700.703125 C 483.910156 689.773438 476.230469 681.832031 460.226562 681.832031 C 444.21875 681.832031 436.542969 689.773438 426 700.703125 L 425.609375 701.09375 C 413.117188 713.976562 397.503906 730.113281 367.183594 730.113281 C 336.601562 730.113281 320.984375 713.847656 308.492188 700.832031 L 308.363281 700.703125 C 297.824219 689.773438 290.144531 681.832031 274.140625 681.832031 C 258.132812 681.832031 250.453125 689.773438 239.914062 700.703125 L 239.652344 700.960938 C 227.03125 713.976562 211.417969 730.113281 181.097656 730.113281 L 173.289062 730.113281 L 173.289062 696.277344 L 181.097656 696.277344 C 197.101562 696.277344 204.78125 688.339844 215.320312 677.410156 L 215.710938 677.019531 C 228.203125 664.136719 243.820312 648 274.140625 648 C 304.71875 648 320.335938 664.265625 332.828125 677.277344 L 332.957031 677.410156 C 343.496094 688.339844 351.175781 696.277344 367.183594 696.277344 C 383.1875 696.277344 390.867188 688.339844 401.40625 677.410156 L 401.667969 677.148438 C 414.289062 664.136719 429.90625 648 460.226562 648 C 490.804688 648 506.421875 664.265625 518.914062 677.277344 L 519.042969 677.410156 C 529.585938 688.339844 537.261719 696.277344 553.269531 696.277344 C 569.402344 696.277344 576.953125 688.339844 587.363281 677.410156 C 599.855469 664.394531 615.46875 648.128906 646.050781 648.128906 C 676.632812 648.128906 692.246094 664.394531 704.738281 677.410156 L 704.871094 677.539062 C 715.410156 688.46875 723.085938 696.410156 739.09375 696.410156 C 755.097656 696.410156 762.777344 688.46875 773.316406 677.539062 L 773.578125 677.277344 C 786.199219 664.265625 801.816406 648.128906 832.007812 648.128906 L 839.8125 648.128906 L 839.8125 681.964844 Z M 832.007812 681.964844 " fill-opacity="1" fill-rule="nonzero"/></g></svg>