<?xml version="1.0" standalone="no"?>
<!DOCTYPE svg PUBLIC "-//W3C//DTD SVG 20010904//EN"
 "http://www.w3.org/TR/2001/REC-SVG-20010904/DTD/svg10.dtd">
<svg version="1.0" xmlns="http://www.w3.org/2000/svg"
 width="750.000000pt" height="750.000000pt" viewBox="0 0 750.000000 750.000000"
 preserveAspectRatio="xMidYMid meet">
<metadata>
Created by potrace 1.14, written by Peter Selinger 2001-2017
</metadata>
<g transform="translate(0.000000,750.000000) scale(0.100000,-0.100000)"
fill="#000000" stroke="none">
<path d="M1154 5159 c-135 -42 -200 -174 -145 -295 29 -65 86 -97 230 -129
134 -30 179 -68 130 -108 -37 -30 -183 -20 -261 17 -54 26 -78 27 -78 5 0 -5
-11 -32 -25 -61 -31 -65 -31 -70 3 -85 82 -35 107 -42 189 -53 151 -19 278 12
342 86 42 47 51 73 51 142 0 111 -58 163 -231 207 -123 31 -159 48 -159 75 0
58 122 74 238 31 34 -13 64 -22 66 -20 1 2 15 35 31 72 35 83 31 90 -75 118
-97 25 -224 25 -306 -2z"/>
<path d="M2328 5165 c-171 -47 -279 -202 -265 -383 22 -290 324 -424 635 -281
l52 24 0 152 0 153 -90 0 -90 0 0 -95 c0 -93 -1 -96 -26 -105 -44 -17 -124
-12 -171 11 -32 15 -52 35 -74 73 -27 45 -30 58 -26 113 13 174 210 244 344
121 l22 -20 60 53 c33 30 61 61 61 70 0 32 -83 88 -169 113 -65 19 -196 20
-263 1z"/>
<path d="M4564 5160 c-114 -37 -174 -127 -161 -240 3 -27 13 -60 22 -74 29
-43 105 -82 221 -111 141 -36 185 -72 132 -109 -45 -32 -222 -12 -283 30 -29
20 -44 17 -55 -11 -5 -14 -19 -44 -30 -67 -11 -23 -20 -47 -20 -54 0 -12 75
-45 150 -65 67 -18 225 -16 290 4 108 33 170 111 170 212 0 120 -67 174 -273
220 -47 10 -89 26 -105 40 l-26 22 31 32 c27 27 39 31 83 31 49 0 162 -31 187
-52 9 -7 15 -4 22 13 5 13 19 46 30 72 12 27 21 53 21 58 0 6 -26 22 -57 36
-48 22 -73 27 -172 30 -96 3 -127 0 -177 -17z"/>
<path d="M1720 4815 l0 -355 103 0 102 0 -2 352 -2 353 -101 3 -100 3 0 -356z"/>
<path d="M2920 4815 l0 -355 100 0 100 0 0 135 0 135 135 0 135 0 0 -135 0
-135 95 0 c52 0 97 0 100 0 3 0 6 159 6 353 l0 352 -101 3 -100 3 0 -136 0
-136 -132 3 -133 3 -2 130 -1 130 -101 3 -101 3 0 -356z"/>
<path d="M3690 5085 l0 -85 110 0 111 0 -1 -271 -1 -271 101 0 101 0 -1 271
-1 271 111 0 110 0 0 85 0 85 -320 0 -320 0 0 -85z"/>
<path d="M5128 4815 l-3 -355 278 0 c152 0 280 -1 285 -2 4 -2 8 34 10 80 l3
82 -186 0 -185 0 0 60 0 60 155 0 155 0 0 80 0 80 -156 0 -155 0 3 53 3 52
178 3 177 2 0 80 0 80 -280 0 -280 0 -2 -355z"/>
<path d="M6015 5058 c-27 -62 -63 -144 -81 -183 -17 -38 -50 -110 -72 -160
-22 -49 -56 -126 -75 -170 -20 -43 -34 -82 -32 -85 2 -3 50 -4 107 -2 l103 3
25 62 25 62 146 3 146 3 15 -33 c8 -18 21 -47 27 -65 l13 -32 105 -3 c58 -2
107 0 109 4 2 3 -11 39 -30 80 -19 40 -51 111 -71 158 -38 87 -48 109 -151
337 l-59 133 -100 0 -100 0 -50 -112z m183 -188 c53 -130 56 -120 -36 -120
l-80 0 30 78 c16 42 34 88 39 101 5 13 11 22 13 20 2 -2 17 -38 34 -79z"/>
<path d="M2978 4050 l-3 -110 88 0 c80 0 87 2 87 20 0 16 -8 19 -57 22 -50 3
-58 6 -58 23 0 17 7 20 49 21 43 1 50 3 51 22 2 20 -3 22 -52 22 -46 0 -53 3
-53 20 0 18 7 20 60 20 57 0 60 1 60 25 0 25 -1 25 -84 25 l-85 0 -3 -110z"/>
<path d="M3310 4152 c0 -10 51 -85 63 -93 5 -4 -9 -32 -32 -63 l-42 -56 38 0
c32 0 41 5 56 32 l18 31 22 -31 c18 -26 29 -32 60 -32 l38 0 -33 46 c-18 25
-36 48 -40 50 -14 9 -9 20 27 65 19 24 35 47 35 52 0 4 -13 7 -29 7 -22 0 -36
-8 -52 -31 l-22 -32 -26 32 c-18 21 -35 31 -53 31 -16 0 -28 -3 -28 -8z"/>
<path d="M3690 4056 c0 -58 0 -109 0 -113 0 -4 12 -7 28 -7 24 0 27 3 24 32
l-4 32 50 0 c38 0 53 5 70 23 27 29 28 77 3 108 -16 20 -30 24 -95 27 l-76 4
0 -106z m121 38 c19 -23 -1 -49 -37 -49 -25 0 -29 4 -32 33 -3 30 -1 32 26 32
16 0 35 -7 43 -16z"/>
<path d="M4050 4050 l0 -110 90 0 c83 0 90 1 90 20 0 18 -7 20 -60 20 -57 0
-60 1 -60 25 0 23 3 25 50 25 43 0 50 3 50 20 0 17 -7 20 -50 20 -43 0 -50 3
-50 20 0 18 7 20 55 20 52 0 55 1 55 25 0 25 -1 25 -85 25 l-85 0 0 -110z"/>
<path d="M4400 4050 l0 -110 81 0 c76 0 82 2 110 29 24 24 29 38 29 76 0 85
-41 115 -156 115 l-64 0 0 -110z m154 27 c19 -26 19 -29 4 -55 -16 -26 -61
-46 -85 -37 -9 3 -13 26 -13 65 l0 61 37 -3 c26 -2 42 -11 57 -31z"/>
<path d="M4798 4051 l-3 -110 28 -4 c15 -2 28 -2 30 -1 1 1 1 52 -1 113 -3
109 -4 111 -27 111 -23 0 -24 -2 -27 -109z"/>
<path d="M5010 4135 c0 -22 4 -25 35 -25 l35 0 0 -85 0 -85 30 0 30 0 0 85 0
85 35 0 c31 0 35 3 35 25 l0 25 -100 0 -100 0 0 -25z"/>
<path d="M5370 4050 l0 -110 30 0 30 0 0 110 0 110 -30 0 -30 0 0 -110z"/>
<path d="M5654 4146 c-38 -17 -58 -63 -51 -117 7 -50 29 -76 77 -89 51 -14 96
-3 131 32 23 24 29 38 29 75 0 38 -5 50 -34 79 -28 28 -41 34 -77 34 -24 -1
-58 -7 -75 -14z m104 -52 c32 -22 26 -70 -10 -97 l-28 -21 -27 21 c-37 27 -43
75 -11 97 12 9 29 16 38 16 9 0 26 -7 38 -16z"/>
<path d="M6010 4050 l0 -110 30 0 c28 0 29 1 32 55 l3 56 42 -54 c42 -54 89
-79 99 -53 3 7 3 57 2 112 l-3 99 -27 3 c-28 3 -28 3 -28 -58 l0 -62 -51 61
c-36 44 -58 61 -75 61 -24 0 -24 0 -24 -110z"/>
<path d="M6430 4153 c-38 -14 -54 -79 -25 -103 8 -6 34 -18 57 -25 78 -23 47
-48 -42 -34 -19 3 -26 -1 -28 -17 -3 -24 7 -30 69 -38 51 -8 88 8 105 43 20
40 -1 69 -63 87 -67 19 -65 39 3 39 42 0 49 3 52 21 2 15 -4 23 -20 28 -27 7
-87 7 -108 -1z"/>
<path d="M1605 3614 c-370 -29 -597 -59 -860 -115 -186 -39 -205 -48 -205 -94
0 -22 8 -43 21 -56 25 -25 38 -24 219 15 699 151 1464 153 2175 7 223 -46 486
-122 945 -271 656 -213 926 -281 1275 -320 118 -13 438 -13 545 0 253 31 485
97 673 191 86 43 223 123 237 139 3 3 37 31 75 62 39 31 95 83 127 115 75 78
168 209 168 239 0 54 -80 85 -117 46 -10 -11 -37 -45 -60 -78 -157 -217 -425
-399 -728 -493 -236 -73 -427 -96 -729 -88 -373 10 -667 74 -1336 292 -146 48
-301 98 -345 112 -44 14 -120 38 -170 53 -341 107 -744 187 -1130 225 -150 15
-669 28 -780 19z"/>
<path d="M1960 3010 c-200 -20 -460 -88 -623 -163 -64 -30 -76 -39 -82 -65 -8
-38 8 -70 40 -82 19 -7 50 1 150 41 240 96 475 139 766 139 410 0 805 -75
1479 -280 486 -148 706 -207 969 -260 297 -59 422 -73 686 -74 264 -1 379 11
575 60 164 41 189 61 158 129 -18 40 -50 41 -188 7 -188 -48 -367 -65 -595
-59 -288 9 -472 36 -834 123 -179 44 -261 66 -621 174 -444 133 -466 139 -645
184 -369 92 -604 126 -915 131 -129 2 -273 0 -320 -5z"/>
<path d="M2141 2575 c-115 -21 -249 -63 -272 -86 -28 -28 -22 -76 12 -101 26
-20 27 -20 105 5 155 48 243 60 418 55 198 -6 367 -43 498 -109 68 -34 116
-20 131 39 9 38 -37 75 -141 117 -163 64 -282 86 -487 90 -129 3 -204 0 -264
-10z"/>
</g>
</svg>
